<svg xmlns="http://www.w3.org/2000/svg" xmlns:xlink="http://www.w3.org/1999/xlink" version="1.1" x="0px" y="0px" viewBox="0 0 100 125" style="enable-background:new 0 0 100 100;" xml:space="preserve"><style type="text/css">
	.st0{fill:none;}
	.st1{fill:#010202;}
</style><rect class="st0" width="100" height="100"/><rect x="6" y="92" class="st1" width="88" height="3"/><polygon points="80,91 78,91 78,89 77,87 77,82 78,82 78,79 79.9,72 83.9,72 83.1,75 81,75 81,78 80,78 80,82 81,82 81,87 80,89 "/><polygon points="87,91 85,91 85,89 84,87 84,82 85,82 85,79 86.9,72 90.9,72 90.1,75 88,75 88,78 87,78 87,82 88,82 88,87 87,89 "/><path d="M9,72v19h11V72H9z M16,78h-4v-3h4V78z M19,86h-1v-1h1V86z M19,83h-1v-1h1V83z M19,80h-1v-1h1V80z M19,77h-1v-1h1V77z M19,74  h-1v-1h1V74z"/><path d="M29,72v19h3v-3h5v3h7V72H29z M31,86h-1v-1h1V86z M31,83h-1v-1h1V83z M31,80h-1v-1h1V80z M31,77h-1v-1h1V77z M31,74h-1v-1h1  V74z M34,86h-1v-1h1V86z M34,83h-1v-1h1V83z M34,80h-1v-1h1V80z M34,77h-1v-1h1V77z M34,74h-1v-1h1V74z M37,86h-1v-1h1V86z M37,83  h-1v-1h1V83z M37,80h-1v-1h1V80z M37,77h-1v-1h1V77z M37,74h-1v-1h1V74z M40,86h-1v-1h1V86z M40,83h-1v-1h1V83z M40,80h-1v-1h1V80z   M40,77h-1v-1h1V77z M40,74h-1v-1h1V74z M43,86h-1v-1h1V86z M43,83h-1v-1h1V83z M43,80h-1v-1h1V80z M43,77h-1v-1h1V77z M43,74h-1v-1  h1V74z"/><path d="M46,72v19h15V72H46z M48,86h-1v-1h1V86z M48,83h-1v-1h1V83z M48,80h-1v-1h1V80z M48,77h-1v-1h1V77z M48,74h-1v-1h1V74z   M51,86h-1v-1h1V86z M51,83h-1v-1h1V83z M51,80h-1v-1h1V80z M51,77h-1v-1h1V77z M51,74h-1v-1h1V74z M54,86h-1v-1h1V86z M54,83h-1v-1  h1V83z M54,80h-1v-1h1V80z M54,77h-1v-1h1V77z M54,74h-1v-1h1V74z M57,86h-1v-1h1V86z M57,83h-1v-1h1V83z M57,80h-1v-1h1V80z M57,77  h-1v-1h1V77z M57,74h-1v-1h1V74z M60,86h-1v-1h1V86z M60,83h-1v-1h1V83z M60,80h-1v-1h1V80z M60,77h-1v-1h1V77z M60,74h-1v-1h1V74z"/><polygon points="79,68 76.3,78 76,78 76,76 75,76 75,79 74,79 74,81 77,81 77,79 80,68 "/><polygon points="76,87 76,87 76,82 75,82 75,87 74,89 74,91 75,91 75,89 76,89 76,89 76,89 76,91 77,91 77,89 "/><polygon points="86,68 83.3,78 83,78 83,76 82,76 82,79 81,79 81,81 84,81 84,79 87,68 "/><polygon points="83,87 83,82 82,82 82,87 81,89 81,91 82,91 82,89 83,89 83,91 84,91 84,89 "/><polygon points="93,68 90.3,78 90,78 90,76 89,76 89,79 88,79 88,81 91,81 91,79 94,68 "/><polygon points="90,87 90,82 89,82 89,87 88,89 88,91 89,91 89,89 90,89 90,91 91,91 91,89 "/><path d="M63,72v19h10v-2l1-2v-5h-1v-4h1v-3h2l1-3H63z M65,86h-1v-1h1V86z M65,83h-1v-1h1V83z M65,80h-1v-1h1V80z M65,77h-1v-1h1V77z   M65,74h-1v-1h1V74z M68,86h-1v-1h1V86z M68,83h-1v-1h1V83z M68,80h-1v-1h1V80z M68,77h-1v-1h1V77z M68,74h-1v-1h1V74z M71,86h-1v-1  h1V86z M71,83h-1v-1h1V83z M71,80h-1v-1h1V80z M71,77h-1v-1h1V77z M71,74h-1v-1h1V74z M74,74h-1v-1h1V74z"/><path d="M21,72v19h1v-3h2v3h3V72H21z M23,86h-1v-1h1V86z M23,83h-1v-1h1V83z M23,80h-1v-1h1V80z M23,77h-1v-1h1V77z M23,74h-1v-1h1  V74z M26,86h-1v-1h1V86z M26,83h-1v-1h1V83z M26,80h-1v-1h1V80z M26,77h-1v-1h1V77z M26,74h-1v-1h1V74z"/><path d="M9,33v36h11V28C18,32,12,37,9,33z M12,58.5c0,0.3-0.2,0.5-0.5,0.5S11,58.8,11,58.5V58h1V58.5z M12,52.5  c0,0.3-0.2,0.5-0.5,0.5S11,52.8,11,52.5V52h1V52.5z M12,48.5c0,0.3-0.2,0.5-0.5,0.5S11,48.8,11,48.5V48h1V48.5z M12,46.5  c0,0.3-0.2,0.5-0.5,0.5S11,46.8,11,46.5V46h1V46.5z M12,42.5c0,0.3-0.2,0.5-0.5,0.5S11,42.8,11,42.5V42h1V42.5z M12,38.5  c0,0.3-0.2,0.5-0.5,0.5S11,38.8,11,38.5V38h1V38.5z M14,60.5c0,0.3-0.2,0.5-0.5,0.5S13,60.8,13,60.5V60h1V60.5z M14,56.5  c0,0.3-0.2,0.5-0.5,0.5S13,56.8,13,56.5V56h1V56.5z M14,54.5c0,0.3-0.2,0.5-0.5,0.5S13,54.8,13,54.5V54h1V54.5z M14,50.5  c0,0.3-0.2,0.5-0.5,0.5S13,50.8,13,50.5V50h1V50.5z M14,44.5c0,0.3-0.2,0.5-0.5,0.5S13,44.8,13,44.5V44h1V44.5z M14,40.5  c0,0.3-0.2,0.5-0.5,0.5S13,40.8,13,40.5V40h1V40.5z M16,64.5c0,0.3-0.2,0.5-0.5,0.5S15,64.8,15,64.5V64h1V64.5z M16,62.5  c0,0.3-0.2,0.5-0.5,0.5S15,62.8,15,62.5V62h1V62.5z M16,58.5c0,0.3-0.2,0.5-0.5,0.5S15,58.8,15,58.5V58h1V58.5z M16,54.5  c0,0.3-0.2,0.5-0.5,0.5S15,54.8,15,54.5V54h1V54.5z M16,52.5c0,0.3-0.2,0.5-0.5,0.5S15,52.8,15,52.5V52h1V52.5z M16,48.5  c0,0.3-0.2,0.5-0.5,0.5S15,48.8,15,48.5V48h1V48.5z M16,46.5c0,0.3-0.2,0.5-0.5,0.5S15,46.8,15,46.5V46h1V46.5z M16,42.5  c0,0.3-0.2,0.5-0.5,0.5S15,42.8,15,42.5V42h1V42.5z M16,38.5c0,0.3-0.2,0.5-0.5,0.5S15,38.8,15,38.5V38h1V38.5z M16,36.5  c0,0.3-0.2,0.5-0.5,0.5S15,36.8,15,36.5V36h1V36.5z M18,60.5c0,0.3-0.2,0.5-0.5,0.5S17,60.8,17,60.5V60h1V60.5z M18,56.5  c0,0.3-0.2,0.5-0.5,0.5S17,56.8,17,56.5V56h1V56.5z M18,50.5c0,0.3-0.2,0.5-0.5,0.5S17,50.8,17,50.5V50h1V50.5z M18,44.5  c0,0.3-0.2,0.5-0.5,0.5S17,44.8,17,44.5V44h1V44.5z M18,40.5c0,0.3-0.2,0.5-0.5,0.5S17,40.8,17,40.5V40h1V40.5z"/><path d="M72.6,42C64,48,54,43,47.7,34c-5.4,4-17.1,4-26.7-7v42h29.3c1.6-1.8,4-3,6.7-3s5,1.2,6.7,3h14l0.5-2h3l-0.5,2h4l0.5-2h3  l-0.5,2H91V47C88,49,80.1,50,72.6,42z M24,58.5c0,0.3-0.2,0.5-0.5,0.5h-1c-0.3,0-0.5-0.2-0.5-0.5V58h2V58.5z M24,52.5  c0,0.3-0.2,0.5-0.5,0.5h-1c-0.3,0-0.5-0.2-0.5-0.5V52h2V52.5z M24,46.5c0,0.3-0.2,0.5-0.5,0.5h-1c-0.3,0-0.5-0.2-0.5-0.5V46h2V46.5z   M24,42.5c0,0.3-0.2,0.5-0.5,0.5h-1c-0.3,0-0.5-0.2-0.5-0.5V42h2V42.5z M24,38.5c0,0.3-0.2,0.5-0.5,0.5h-1c-0.3,0-0.5-0.2-0.5-0.5  V38h2V38.5z M27,62.5c0,0.3-0.2,0.5-0.5,0.5h-1c-0.3,0-0.5-0.2-0.5-0.5V62h2V62.5z M27,60.5c0,0.3-0.2,0.5-0.5,0.5h-1  c-0.3,0-0.5-0.2-0.5-0.5V60h2V60.5z M27,56.5c0,0.3-0.2,0.5-0.5,0.5h-1c-0.3,0-0.5-0.2-0.5-0.5V56h2V56.5z M27,54.5  c0,0.3-0.2,0.5-0.5,0.5h-1c-0.3,0-0.5-0.2-0.5-0.5V54h2V54.5z M27,50.5c0,0.3-0.2,0.5-0.5,0.5h-1c-0.3,0-0.5-0.2-0.5-0.5V50h2V50.5z   M27,48.5c0,0.3-0.2,0.5-0.5,0.5h-1c-0.3,0-0.5-0.2-0.5-0.5V48h2V48.5z M27,44.5c0,0.3-0.2,0.5-0.5,0.5h-1c-0.3,0-0.5-0.2-0.5-0.5  V44h2V44.5z M27,40.5c0,0.3-0.2,0.5-0.5,0.5h-1c-0.3,0-0.5-0.2-0.5-0.5V40h2V40.5z M27,36.5c0,0.3-0.2,0.5-0.5,0.5h-1  c-0.3,0-0.5-0.2-0.5-0.5V36h2V36.5z M30,54.5c0,0.3-0.2,0.5-0.5,0.5h-1c-0.3,0-0.5-0.2-0.5-0.5V54h2V54.5z M30,52.5  c0,0.3-0.2,0.5-0.5,0.5h-1c-0.3,0-0.5-0.2-0.5-0.5V52h2V52.5z M30,46.5c0,0.3-0.2,0.5-0.5,0.5h-1c-0.3,0-0.5-0.2-0.5-0.5V46h2V46.5z   M30,42.5c0,0.3-0.2,0.5-0.5,0.5h-1c-0.3,0-0.5-0.2-0.5-0.5V42h2V42.5z M30,38.5c0,0.3-0.2,0.5-0.5,0.5h-1c-0.3,0-0.5-0.2-0.5-0.5  V38h2V38.5z M33,58.5c0,0.3-0.2,0.5-0.5,0.5h-1c-0.3,0-0.5-0.2-0.5-0.5V58h2V58.5z M33,56.5c0,0.3-0.2,0.5-0.5,0.5h-1  c-0.3,0-0.5-0.2-0.5-0.5V56h2V56.5z M33,50.5c0,0.3-0.2,0.5-0.5,0.5h-1c-0.3,0-0.5-0.2-0.5-0.5V50h2V50.5z M33,48.5  c0,0.3-0.2,0.5-0.5,0.5h-1c-0.3,0-0.5-0.2-0.5-0.5V48h2V48.5z M33,40.5c0,0.3-0.2,0.5-0.5,0.5h-1c-0.3,0-0.5-0.2-0.5-0.5V40h2V40.5z   M36,60.5c0,0.3-0.2,0.5-0.5,0.5h-1c-0.3,0-0.5-0.2-0.5-0.5V60h2V60.5z M36,52.5c0,0.3-0.2,0.5-0.5,0.5h-1c-0.3,0-0.5-0.2-0.5-0.5  V52h2V52.5z M36,44.5c0,0.3-0.2,0.5-0.5,0.5h-1c-0.3,0-0.5-0.2-0.5-0.5V44h2V44.5z M36,38.5c0,0.3-0.2,0.5-0.5,0.5h-1  c-0.3,0-0.5-0.2-0.5-0.5V38h2V38.5z M39,54.5c0,0.3-0.2,0.5-0.5,0.5h-1c-0.3,0-0.5-0.2-0.5-0.5V54h2V54.5z M39,46.5  c0,0.3-0.2,0.5-0.5,0.5h-1c-0.3,0-0.5-0.2-0.5-0.5V46h2V46.5z M39,42.5c0,0.3-0.2,0.5-0.5,0.5h-1c-0.3,0-0.5-0.2-0.5-0.5V42h2V42.5z   M39,40.5c0,0.3-0.2,0.5-0.5,0.5h-1c-0.3,0-0.5-0.2-0.5-0.5V40h2V40.5z M42,52.5c0,0.3-0.2,0.5-0.5,0.5h-1c-0.3,0-0.5-0.2-0.5-0.5  V52h2V52.5z M42,40.5c0,0.3-0.2,0.5-0.5,0.5h-1c-0.3,0-0.5-0.2-0.5-0.5V40h2V40.5z M45,46.5c0,0.3-0.2,0.5-0.5,0.5h-1  c-0.3,0-0.5-0.2-0.5-0.5V46h2V46.5z M45,38.5c0,0.3-0.2,0.5-0.5,0.5h-1c-0.3,0-0.5-0.2-0.5-0.5V38h2V38.5z M48,44.5  c0,0.3-0.2,0.5-0.5,0.5h-1c-0.3,0-0.5-0.2-0.5-0.5V44h2V44.5z M48,42.5c0,0.3-0.2,0.5-0.5,0.5h-1c-0.3,0-0.5-0.2-0.5-0.5V42h2V42.5z   M51,40.5c0,0.3-0.2,0.5-0.5,0.5h-1c-0.3,0-0.5-0.2-0.5-0.5V40h2V40.5z M60,61c0,0.6-0.4,1-1,1s-1-0.4-1-1v-1h2V61z M65,57  c0,0.6-0.4,1-1,1s-1-0.4-1-1v-1h2V57z M66,53c0,0.6-0.4,1-1,1s-1-0.4-1-1v-1h2V53z M69,66.5c0,0.3-0.2,0.5-0.5,0.5h-1  c-0.3,0-0.5-0.2-0.5-0.5V66h2V66.5z M87,50.5c0,0.3-0.2,0.5-0.5,0.5h-1c-0.3,0-0.5-0.2-0.5-0.5V50h2V50.5z"/><g><path d="M54.7,67.3L54,71h1l0.8-3.9C55.4,67.2,55.1,67.2,54.7,67.3z"/><path d="M58.2,67.1L59,71h1l-0.7-3.7C58.9,67.2,58.6,67.2,58.2,67.1z"/></g><g><polygon points="10,70 10,71 53,71 53.2,70  "/><polygon points="56.2,70 56,71 58,71 57.8,70  "/><polygon points="90,70 87.5,70 87.2,71 90,71  "/><polygon points="60.8,70 61,71 77.2,71 77.5,70  "/><polygon points="84.5,70 80.5,70 80.2,71 84.2,71  "/></g><text x="0" y="115" fill="#000000" font-size="5px" font-weight="bold" font-family="'Helvetica Neue', Helvetica, Arial-Unicode, Arial, Sans-serif">Created by Stefan Spieler</text><text x="0" y="120" fill="#000000" font-size="5px" font-weight="bold" font-family="'Helvetica Neue', Helvetica, Arial-Unicode, Arial, Sans-serif">from the Noun Project</text></svg>